<svg width="24" height="24" viewBox="0 0 24 24" fill="none" xmlns="http://www.w3.org/2000/svg">
<path d="M24 12.0731L24 19.5C24 20.3284 23.3284 21 22.5 21L1.5 21C0.671573 21 0 20.3284 0 19.5L0 12.0731L12 18.0731L24 12.0731Z" fill="#34A853"/>
<path d="M0 12.0734V4.50003C0 3.67157 0.671571 3 1.5 3H22.5C23.3284 3 24 3.67157 24 4.50003V12.0734L12 18.0734L0 12.0734Z" fill="#EA4335"/>
<path d="M24 12.0731L12 18.0731L0 12.0731V4.50003C0 3.67157 0.671571 3 1.5 3L22.5 3C23.3284 3 24 3.67157 24 4.50003V12.0731Z" fill="#FBBC04"/>
<path d="M0 12.0734L12 18.0734L24 12.0734V19.5003C24 20.3288 23.3284 21.0003 22.5 21.0003H1.5C0.671571 21.0003 0 20.3288 0 19.5003V12.0734Z" fill="#137333"/>
<path d="M12 18.0731L0 12.0731L0 4.50003L12 12L24 4.50003L24 12.0731L12 18.0731Z" fill="#C5221F"/>
</svg>