<svg width="24" height="24" viewBox="0 0 24 24" fill="none" xmlns="http://www.w3.org/2000/svg">
  <!-- Gmail M Shape with Google Colors -->
  <path d="M2 6L12 13L22 6V5C22 3.9 21.1 3 20 3H4C2.9 3 2 3.9 2 5V6Z" fill="#EA4335"/>
  <path d="M2 6V18C2 19.1 2.9 20 4 20H20C21.1 20 22 19.1 22 18V6" fill="none" stroke="#34A853" stroke-width="0"/>
  <path d="M2 6L12 13L22 6V18C22 19.1 21.1 20 20 20H4C2.9 20 2 19.1 2 18V6Z" fill="#FBBC04"/>
  <path d="M2 6L7 10.5L12 13L17 10.5L22 6" fill="none" stroke="#EA4335" stroke-width="0"/>
  
  <!-- Simplified Gmail M -->
  <path d="M2 6V18C2 19.1 2.9 20 4 20H9V11L12 13L15 11V20H20C21.1 20 22 19.1 22 18V6L17 10L12 13L7 10L2 6Z" fill="#EA4335"/>
  <path d="M2 6L7 10V18H4C2.9 18 2 17.1 2 16V6Z" fill="#C5221F"/>
  <path d="M22 6L17 10V18H20C21.1 18 22 17.1 22 16V6Z" fill="#C5221F"/>
  <path d="M7 10L12 13L17 10V18H7V10Z" fill="#FFFFFF"/>
  <path d="M7 10L12 13L17 10L12 7L7 10Z" fill="#EA4335"/>
</svg>